
<svg width="512" height="512" viewBox="0 0 512 512" xmlns="http://www.w3.org/2000/svg">
  <defs>
    <linearGradient id="bg" x1="0%" y1="0%" x2="100%" y2="100%">
      <stop offset="0%" style="stop-color:#3b82f6;stop-opacity:1" />
      <stop offset="100%" style="stop-color:#1d4ed8;stop-opacity:1" />
    </linearGradient>
  </defs>
  <rect width="512" height="512" rx="64" ry="64" fill="url(#bg)"/>
  
  <!-- Mobile icon -->
  <rect x="160" y="120" width="80" height="120" rx="12" ry="12" fill="#ffffff" opacity="0.9"/>
  <rect x="170" y="130" width="60" height="80" rx="4" ry="4" fill="#3b82f6"/>
  <rect x="175" y="215" width="50" height="8" rx="4" ry="4" fill="#ffffff"/>
  
  <!-- Tablet icon -->
  <rect x="260" y="140" width="100" height="80" rx="8" ry="8" fill="#ffffff" opacity="0.8"/>
  <rect x="270" y="150" width="80" height="50" rx="4" ry="4" fill="#1d4ed8"/>
  <rect x="275" y="205" width="70" height="6" rx="3" ry="3" fill="#ffffff"/>
  
  <!-- Desktop icon -->
  <rect x="200" y="280" width="140" height="100" rx="8" ry="8" fill="#ffffff" opacity="0.7"/>
  <rect x="210" y="290" width="120" height="70" rx="4" ry="4" fill="#0f172a"/>
  <rect x="215" y="365" width="110" height="8" rx="4" ry="4" fill="#ffffff"/>
  
  <!-- Auto-switch arrows -->
  <path d="M140 256 L160 240 L160 250 L180 250 L180 262 L160 262 L160 272 Z" fill="#fbbf24"/>
  <path d="M372 256 L352 240 L352 250 L332 250 L332 262 L352 262 L352 272 Z" fill="#fbbf24"/>
  
  <!-- Center circle -->
  <circle cx="256" cy="256" r="24" fill="#fbbf24"/>
  <text x="256" y="266" text-anchor="middle" fill="#0f172a" font-family="Arial, sans-serif" font-size="20" font-weight="bold">$</text>
</svg>
